<mxfile host="app.diagrams.net" modified="2023-11-21T09:49:25.775Z" agent="Mozilla/5.0 (Windows NT 10.0; Win64; x64) AppleWebKit/537.36 (KHTML, like Gecko) Chrome/119.0.0.0 Safari/537.36 Edg/119.0.0.0" version="22.1.3" etag="QlfwntRMb9VOoFUp5lPf" type="github">
  <diagram name="Page-1" id="Y4vfuY8mGrBptqNZzy3U">
    <mxGraphModel>
      <root>
        <mxCell id="0" />
        <mxCell id="1" parent="0" />
      </root>
    </mxGraphModel>
  </diagram>
</mxfile>
